<svg width="52" height="56" viewBox="0 0 52 56" fill="none" xmlns="http://www.w3.org/2000/svg">
<path d="M46 0H22C20.4087 0 18.8826 0.632141 17.7574 1.75736C16.6321 2.88258 16 4.4087 16 6V18H6C4.4087 18 2.88258 18.6321 1.75736 19.7574C0.632141 20.8826 0 22.4087 0 24V46C0 48.6522 1.05357 51.1957 2.92893 53.0711C4.8043 54.9464 7.34784 56 10 56H42C44.6522 56 47.1957 54.9464 49.0711 53.0711C50.9464 51.1957 52 48.6522 52 46V38C52 37.4696 51.7893 36.9609 51.4142 36.5858C51.0391 36.2107 50.5304 36 50 36C49.4696 36 48.9609 36.2107 48.5858 36.5858C48.2107 36.9609 48 37.4696 48 38V46C48 47.5913 47.3679 49.1174 46.2426 50.2426C45.1174 51.3679 43.5913 52 42 52H18C19.3088 50.2746 20.0117 48.1656 20 46V6C20 5.46957 20.2107 4.96086 20.5858 4.58579C20.9609 4.21071 21.4696 4 22 4H46C46.5304 4 47.0391 4.21071 47.4142 4.58579C47.7893 4.96086 48 5.46957 48 6V20C48 20.5304 48.2107 21.0391 48.5858 21.4142C48.9609 21.7893 49.4696 22 50 22C50.5304 22 51.0391 21.7893 51.4142 21.4142C51.7893 21.0391 52 20.5304 52 20V6C52 4.4087 51.3679 2.88258 50.2426 1.75736C49.1174 0.632141 47.5913 0 46 0ZM4 46V24C4 23.4696 4.21071 22.9609 4.58579 22.5858C4.96086 22.2107 5.46957 22 6 22H16V26H10C9.46957 26 8.96086 26.2107 8.58579 26.5858C8.21071 26.9609 8 27.4696 8 28C8 28.5304 8.21071 29.0391 8.58579 29.4142C8.96086 29.7893 9.46957 30 10 30H16V34H10C9.46957 34 8.96086 34.2107 8.58579 34.5858C8.21071 34.9609 8 35.4696 8 36C8 36.5304 8.21071 37.0391 8.58579 37.4142C8.96086 37.7893 9.46957 38 10 38H16V46C16 47.5913 15.3679 49.1174 14.2426 50.2426C13.1174 51.3679 11.5913 52 10 52C8.4087 52 6.88258 51.3679 5.75736 50.2426C4.63214 49.1174 4 47.5913 4 46ZM42 12H26C25.4696 12 24.9609 11.7893 24.5858 11.4142C24.2107 11.0391 24 10.5304 24 10C24 9.46957 24.2107 8.96086 24.5858 8.58579C24.9609 8.21071 25.4696 8 26 8H42C42.5304 8 43.0391 8.21071 43.4142 8.58579C43.7893 8.96086 44 9.46957 44 10C44 10.5304 43.7893 11.0391 43.4142 11.4142C43.0391 11.7893 42.5304 12 42 12ZM38 20H26C25.4696 20 24.9609 19.7893 24.5858 19.4142C24.2107 19.0391 24 18.5304 24 18C24 17.4696 24.2107 16.9609 24.5858 16.5858C24.9609 16.2107 25.4696 16 26 16H38C38.5304 16 39.0391 16.2107 39.4142 16.5858C39.7893 16.9609 40 17.4696 40 18C40 18.5304 39.7893 19.0391 39.4142 19.4142C39.0391 19.7893 38.5304 20 38 20ZM36 24C36.5304 24 37.0391 24.2107 37.4142 24.5858C37.7893 24.9609 38 25.4696 38 26C38 26.5304 37.7893 27.0391 37.4142 27.4142C37.0391 27.7893 36.5304 28 36 28H26C25.4696 28 24.9609 27.7893 24.5858 27.4142C24.2107 27.0391 24 26.5304 24 26C24 25.4696 24.2107 24.9609 24.5858 24.5858C24.9609 24.2107 25.4696 24 26 24H36ZM52 32C52 32.3956 51.8827 32.7822 51.6629 33.1111C51.4432 33.44 51.1308 33.6964 50.7654 33.8478C50.3999 33.9991 49.9978 34.0387 49.6098 33.9616C49.2219 33.8844 48.8655 33.6939 48.5858 33.4142C48.3061 33.1345 48.1156 32.7781 48.0384 32.3902C47.9613 32.0022 48.0009 31.6001 48.1522 31.2346C48.3036 30.8692 48.56 30.5568 48.8889 30.3371C49.2178 30.1173 49.6044 30 50 30C50.5304 30 51.0391 30.2107 51.4142 30.5858C51.7893 30.9609 52 31.4696 52 32Z" fill="#242424" fill-opacity="0.5"/>
</svg>
