<svg width="24" height="24" viewBox="0 0 24 24" fill="none" xmlns="http://www.w3.org/2000/svg">
<path d="M11.3343 3.66697C11.5438 3.02205 12.4562 3.02205 12.6657 3.66697L13.9492 7.61713C14.1768 8.31756 14.8295 8.7918 15.566 8.7918H19.7195C20.3976 8.7918 20.6795 9.65953 20.1309 10.0581L16.7707 12.4994C16.1749 12.9323 15.9256 13.6997 16.1531 14.4001L17.4366 18.3502C17.6462 18.9952 16.908 19.5315 16.3594 19.1329L12.9992 16.6915C12.4034 16.2586 11.5966 16.2586 11.0008 16.6915L7.64056 19.1329C7.09196 19.5315 6.35383 18.9952 6.56337 18.3503L7.84686 14.4001C8.07444 13.6997 7.82512 12.9323 7.2293 12.4994L3.86909 10.0581C3.32049 9.65953 3.60244 8.7918 4.28054 8.7918H8.43398C9.17047 8.7918 9.82319 8.31756 10.0508 7.61712L11.3343 3.66697Z" stroke="#9D00FF"/>
</svg>
