<svg width="24" height="20" viewBox="0 0 24 20" fill="none" xmlns="http://www.w3.org/2000/svg">
<path d="M11.9984 0.000127365C11.8186 0.00334686 11.6361 0.0673944 11.4588 0.183053L0.33685 8.96351C0.0511457 9.2472 -0.149701 9.85802 0.144778 10.2348C0.439253 10.6117 1.05859 10.6622 1.41611 10.3446L11.9984 1.99402L22.5807 10.3446C22.9382 10.6622 23.5706 10.6215 23.852 10.2348C24.0989 9.89554 24.0382 9.24632 23.6599 8.96351L12.538 0.183053C12.3551 0.0545311 12.1782 -0.00308921 11.9984 0.000127365ZM4.97403 8.57022L3.21794 9.96045V18.4391C3.21796 18.6719 3.31047 18.8953 3.47513 19.0599C3.6398 19.2246 3.86312 19.3171 4.09598 19.3171H9.65693C9.8898 19.3171 10.1131 19.2246 10.2778 19.0599C10.4424 18.8953 10.535 18.6719 10.535 18.4391V14.9269C10.535 14.101 11.1725 13.4635 11.9984 13.4635C12.8243 13.4635 13.4618 14.101 13.4618 14.9269V18.4391C13.4618 18.6719 13.5543 18.8953 13.719 19.0599C13.8837 19.2246 14.107 19.3171 14.3398 19.3171H19.9008C20.1337 19.3171 20.357 19.2246 20.5216 19.0599C20.6863 18.8953 20.7788 18.6719 20.7788 18.4391V9.96045L19.0227 8.57022V17.561H15.2179V14.9269C15.2179 13.1585 13.7668 11.7074 11.9984 11.7074C10.23 11.7074 8.77889 13.1585 8.77889 14.9269V17.561H4.97403V8.57022Z" fill="#242424" fill-opacity="0.5"/>
</svg>
