<svg width="21" height="24" viewBox="0 0 21 24" fill="none" xmlns="http://www.w3.org/2000/svg">
<path d="M19.5205 4.82913C16.5211 3.76313 13.7058 2.23611 11.1766 0.303007C10.9112 0.106133 10.5896 0 10.2592 0C9.929 0 9.60736 0.106133 9.34194 0.303007C6.81531 2.23561 4.00278 3.76262 1.00584 4.82913C0.710527 4.93508 0.455289 5.12981 0.27527 5.38664C0.0952198 5.64347 -0.000887275 5.94969 6.17328e-06 6.26345C6.17328e-06 11.549 1.02624 15.5361 3.09949 18.451C4.79549 20.8217 6.94819 22.1919 8.86476 23.4003L9.43175 23.7595C9.67677 23.9164 9.96168 24 10.2529 24C10.5439 24 10.8288 23.9164 11.0739 23.7595L11.6409 23.3978C13.5473 22.1893 15.7102 20.8319 17.4061 18.4485C19.5 15.5362 20.5262 11.5488 20.5262 6.26828C20.5278 5.95382 20.4321 5.64671 20.2519 5.38899C20.0718 5.13108 19.8162 4.93547 19.5204 4.82896L19.5205 4.82913ZM10.2479 1.52951H10.2608H10.2429H10.2479ZM16.1648 17.5529C14.6433 19.6801 12.7036 20.9089 10.828 22.097C10.6356 22.2201 10.4432 22.3407 10.2712 22.4614L9.699 22.097C7.82331 20.9091 5.88361 19.6801 4.36213 17.5529C2.46857 14.9077 1.53966 11.2154 1.53966 6.26341H1.53984C4.67461 5.15091 7.61758 3.55818 10.2636 1.54234C12.9072 3.56171 15.8511 5.1548 18.9873 6.26341C18.9873 11.2154 18.0586 14.9102 16.165 17.5529H16.1648Z" fill="#9D00FF"/>
<path d="M16.1648 17.5529C14.6433 19.6801 12.7036 20.9089 10.828 22.097C10.6356 22.2201 10.4432 22.3407 10.2712 22.4614L9.699 22.097C7.82331 20.9091 5.88361 19.6801 4.36213 17.5529C2.46857 14.9077 1.53966 11.2154 1.53966 6.26341H1.53984C4.67461 5.15091 7.61758 3.55818 10.2636 1.54234C12.9072 3.56171 15.8511 5.1548 18.9873 6.26341C18.9873 11.2154 18.0586 14.9102 16.165 17.5529H16.1648Z" fill="#9D00FF"/>
<path d="M7.18681 11.4824L6.099 12.5729L9.38322 15.8546L14.4122 9.96103L13.2422 8.96289L9.29347 13.5891L7.18681 11.4824Z" fill="white"/>
</svg>
