<svg width="107" height="14" viewBox="0 0 107 14" fill="none" xmlns="http://www.w3.org/2000/svg">
<path d="M89.5888 6.6992C88.8258 6.20337 87.9852 5.85082 87.1894 5.41009C86.6733 5.12361 86.1235 4.87012 85.6755 4.50652C84.9126 3.88951 85.0696 2.67753 85.8663 2.14862C87.0099 1.39938 88.9044 1.81801 89.1063 3.34963C89.1063 3.38263 89.14 3.40474 89.1737 3.40474H90.9007C90.9456 3.40474 90.9793 3.37166 90.968 3.32761C90.8783 2.26979 90.4631 1.38833 89.701 0.826384C88.9717 0.286479 88.1423 0 87.2559 0C82.6927 0 82.2775 4.74895 84.733 6.2475C85.0135 6.42378 87.4242 7.61374 88.2769 8.13159C89.1288 8.64945 89.3981 9.59707 89.0278 10.3463C88.6912 11.0295 87.8169 11.5033 86.9426 11.4482C85.9888 11.3931 85.2492 10.8863 84.9911 10.0929C84.9462 9.9497 84.9238 9.67419 84.9238 9.55302C84.9238 9.51994 84.8901 9.48686 84.8564 9.48686H82.9844C82.9507 9.48686 82.9171 9.51994 82.9171 9.55302C82.9171 10.8863 83.2537 11.6244 84.1729 12.2966C85.036 12.9357 85.9776 13.2001 86.9538 13.2001C89.5103 13.2001 90.8334 11.7787 91.1018 10.3023C91.3375 8.8588 90.9007 7.55864 89.5888 6.6992Z" fill="#161616"/>
<path d="M8.28585 0.242432H7.45616H6.54792C6.51426 0.242432 6.49182 0.264464 6.4806 0.286505L4.94455 5.26684C4.92211 5.333 4.83243 5.333 4.80999 5.26684L3.27385 0.286505C3.26263 0.253444 3.24019 0.242432 3.20653 0.242432H2.29838H1.4686H0.34735C0.313689 0.242432 0.280029 0.275485 0.280029 0.308537V13.0239C0.280029 13.0569 0.313689 13.09 0.34735 13.09H2.21984C2.2535 13.09 2.28716 13.0569 2.28716 13.0239V3.36064C2.28716 3.28351 2.39928 3.27254 2.42172 3.33861L3.96899 8.35204L4.0811 8.70459C4.09232 8.73767 4.11476 8.74872 4.14842 8.74872H5.58367C5.61724 8.74872 5.63968 8.72661 5.6509 8.70459L5.76302 8.35204L7.31038 3.33861C7.33282 3.26149 7.44493 3.28351 7.44493 3.36064V13.0239C7.44493 13.0569 7.4786 13.09 7.51217 13.09H9.38474C9.41832 13.09 9.45198 13.0569 9.45198 13.0239V0.308537C9.45198 0.275485 9.41832 0.242432 9.38474 0.242432H8.28585Z" fill="#161616"/>
<path d="M60.9176 0.242432C60.884 0.242432 60.8615 0.264464 60.8503 0.286505L59.3149 5.26684C59.2924 5.333 59.2027 5.333 59.1802 5.26684L57.6439 0.286505C57.6327 0.253444 57.6102 0.242432 57.5766 0.242432H54.7284C54.6947 0.242432 54.661 0.275485 54.661 0.308537V13.0239C54.661 13.0569 54.6947 13.09 54.7284 13.09H56.6013C56.6349 13.09 56.6686 13.0569 56.6686 13.0239V3.36064C56.6686 3.28351 56.7808 3.27254 56.8032 3.33861L58.3499 8.35204L58.4621 8.70459C58.4733 8.73767 58.4958 8.74872 58.5294 8.74872H59.9648C59.9984 8.74872 60.0209 8.72661 60.0321 8.70459L60.1443 8.35204L61.6918 3.33861C61.7143 3.26149 61.8265 3.28351 61.8265 3.36064V13.0239C61.8265 13.0569 61.8601 13.09 61.8938 13.09H63.7658C63.7995 13.09 63.8332 13.0569 63.8332 13.0239V0.308537C63.8332 0.275485 63.7995 0.242432 63.7658 0.242432H60.9176Z" fill="#161616"/>
<path d="M36.7657 0.242432H33.2785H31.406H27.919C27.8853 0.242432 27.8517 0.275485 27.8517 0.308537V1.89517C27.8517 1.92824 27.8853 1.96132 27.919 1.96132H31.3388V13.0239C31.3388 13.0569 31.3724 13.09 31.406 13.09H33.2785C33.3122 13.09 33.3459 13.0569 33.3459 13.0239V1.96132H36.7657C36.7994 1.96132 36.8329 1.92824 36.8329 1.89517V0.308537C36.8329 0.275485 36.8106 0.242432 36.7657 0.242432Z" fill="#161616"/>
<path d="M47.8104 13.0898H49.5142C49.5591 13.0898 49.5927 13.0458 49.5815 13.0017L46.061 0.242315C46.0497 0.209262 46.0273 0.198242 45.9936 0.198242H45.3435H44.1998H43.5494C43.5158 0.198242 43.4933 0.220282 43.4821 0.242315L39.9614 13.0017C39.9502 13.0458 39.9838 13.0898 40.0287 13.0898H41.733C41.7666 13.0898 41.7891 13.0678 41.8003 13.0458L42.8206 9.33251C42.8318 9.29952 42.8542 9.28846 42.8879 9.28846H46.6556C46.6893 9.28846 46.7117 9.31049 46.723 9.33251L47.7431 13.0458C47.7543 13.0678 47.788 13.0898 47.8104 13.0898ZM43.3363 7.47044L44.7043 2.50107C44.7267 2.435 44.8165 2.435 44.8389 2.50107L46.2068 7.47044C46.218 7.51449 46.1844 7.55854 46.1395 7.55854H43.4037C43.3588 7.55854 43.3252 7.51449 43.3363 7.47044Z" fill="#161616"/>
<path d="M76.8736 13.0898H78.5773C78.6222 13.0898 78.6559 13.0458 78.6447 13.0017L75.1241 0.242315C75.1129 0.209262 75.0904 0.198242 75.0568 0.198242H74.4068H73.2632H72.6125C72.5788 0.198242 72.5564 0.220282 72.5451 0.242315L69.0246 13.0017C69.0134 13.0458 69.047 13.0898 69.0919 13.0898H70.7965C70.8302 13.0898 70.8526 13.0678 70.8638 13.0458L71.884 9.33251C71.8952 9.29952 71.9177 9.28846 71.9513 9.28846H75.7188C75.7524 9.28846 75.7749 9.31049 75.7861 9.33251L76.8063 13.0458C76.8175 13.0678 76.8399 13.0898 76.8736 13.0898ZM72.3993 7.47044L73.7673 2.50107C73.7897 2.435 73.8795 2.435 73.9019 2.50107L75.2699 7.47044C75.2812 7.51449 75.2475 7.55854 75.2026 7.55854H72.4666C72.4217 7.55854 72.3881 7.51449 72.3993 7.47044Z" fill="#161616"/>
<path d="M17.0543 11.2058V7.26113C17.0543 7.22814 17.088 7.19506 17.1216 7.19506H22.1112C22.1448 7.19506 22.1785 7.16198 22.1785 7.1289V5.54226C22.1785 5.50926 22.1448 5.47618 22.1112 5.47618H17.1216C17.088 5.47618 17.0543 5.44311 17.0543 5.41003V2.03844C17.0543 2.00536 17.088 1.97228 17.1216 1.97228H22.7952C22.8288 1.97228 22.8625 1.9392 22.8625 1.90621V0.319532C22.8625 0.286479 22.8288 0.253418 22.7952 0.253418H17.0543H15.1146C15.0809 0.253418 15.0473 0.286479 15.0473 0.319532V1.97228V5.48715V7.20611V11.2829V13.0238C15.0473 13.0569 15.0809 13.0899 15.1146 13.0899H17.0543H23.0306C23.0643 13.0899 23.098 13.0569 23.098 13.0238V11.349C23.098 11.316 23.0643 11.2829 23.0306 11.2829H17.1104C17.0767 11.2719 17.0543 11.2498 17.0543 11.2058Z" fill="#161616"/>
<path d="M106.699 12.9797L100.218 6.40169C100.195 6.37967 100.195 6.33562 100.218 6.3136L106.049 0.363605C106.094 0.319532 106.06 0.253418 106.004 0.253418H103.616C103.593 0.253418 103.582 0.264438 103.571 0.275459L98.6261 5.32193C98.5812 5.36598 98.5139 5.3329 98.5139 5.2778V0.319532C98.5139 0.286479 98.4802 0.253418 98.4466 0.253418H96.5736C96.54 0.253418 96.5063 0.286479 96.5063 0.319532V13.0348C96.5063 13.0679 96.54 13.101 96.5736 13.101H98.4466C98.4802 13.101 98.5139 13.0679 98.5139 13.0348V7.43749C98.5139 7.38239 98.5924 7.34931 98.6261 7.39336L104.232 13.0789C104.243 13.0899 104.266 13.101 104.277 13.101H106.665C106.71 13.0899 106.744 13.0128 106.699 12.9797Z" fill="#161616"/>
</svg>
