<svg width="20" height="20" viewBox="0 0 20 20" fill="none" xmlns="http://www.w3.org/2000/svg">
<path fill-rule="evenodd" clip-rule="evenodd" d="M13.5308 0.792318C14.0316 0.291461 14.7095 0.0106676 15.4166 0.000359081C16.1521 -0.0114614 16.8657 0.268886 17.3894 0.792318L19.2077 2.61063C20.2649 3.66787 20.2649 5.41193 19.2077 6.46921L13.0405 12.6364L11.7523 11.3481L15.4574 7.64294L12.3571 4.54258L2.08822 14.8114C1.91938 14.9803 1.81835 15.2084 1.81832 15.4489V18.1799H4.55111C4.79173 18.1799 5.01981 18.0805 5.18858 17.9118L10.5502 12.5502L11.8384 13.8384L6.47596 19.2009C5.96513 19.7118 5.27159 19.9928 4.55111 19.9929L0.912713 20C0.792726 20.0005 0.673836 19.9772 0.562895 19.9314C0.451954 19.8857 0.351156 19.8185 0.266312 19.7337C0.181468 19.6488 0.114256 19.548 0.0685504 19.4371C0.0228446 19.3262 -0.000450877 19.2073 6.60964e-06 19.0873L0.00710938 15.4489C0.00719803 14.7284 0.288302 14.0349 0.799069 13.524L13.5308 0.792318ZM16.1002 2.0797C15.9277 1.9072 15.6921 1.80813 15.4432 1.81157C15.2079 1.815 14.9838 1.91407 14.8182 2.0797L13.6427 3.25698L16.743 6.35734L17.9203 5.18183C18.2824 4.81973 18.2824 4.26189 17.9203 3.89978L16.1002 2.0797Z" fill="white" fill-opacity="0.5"/>
</svg>
