<svg width="20" height="20" viewBox="0 0 20 20" fill="none" xmlns="http://www.w3.org/2000/svg">
<path fill-rule="evenodd" clip-rule="evenodd" d="M2.9 0C3.39706 0 3.8 0.402944 3.8 0.9L3.8 7.1C3.8 7.59706 3.39706 8 2.9 8C2.40294 8 2 7.59706 2 7.1L2 0.9C2 0.402944 2.40294 0 2.9 0ZM3.8 11.8H5.1C5.59706 11.8 6 11.3971 6 10.9C6 10.4029 5.59706 10 5.1 10H2.9H0.9C0.402944 10 0 10.4029 0 10.9C0 11.3971 0.402944 11.8 0.9 11.8H2L2 19.1C2 19.5971 2.40294 20 2.9 20C3.39706 20 3.8 19.5971 3.8 19.1L3.8 11.8ZM10.8 0.9C10.8 0.402944 10.3971 0 9.9 0C9.40294 0 9 0.402944 9 0.9V4.1C9 4.59706 9.40294 5 9.9 5C10.3971 5 10.8 4.59706 10.8 4.1V0.9ZM16.9 0C17.3971 0 17.8 0.402944 17.8 0.9L17.8 10.1C17.8 10.5971 17.3971 11 16.9 11C16.4029 11 16 10.5971 16 10.1V0.9C16 0.402944 16.4029 0 16.9 0ZM17.8 14.9C17.8 14.8662 17.7981 14.8328 17.7945 14.8H19.1C19.5971 14.8 20 14.3971 20 13.9C20 13.4029 19.5971 13 19.1 13H14.9C14.4029 13 14 13.4029 14 13.9C14 14.3971 14.4029 14.8 14.9 14.8H16.0055C16.0019 14.8328 16 14.8662 16 14.9V19.1C16 19.5971 16.4029 20 16.9 20C17.3971 20 17.8 19.5971 17.8 19.1V14.9ZM10.7945 8.8C10.7981 8.83283 10.8 8.8662 10.8 8.9V19.1C10.8 19.5971 10.3971 20 9.9 20C9.40294 20 9 19.5971 9 19.1L9 8.9C9 8.8662 9.00186 8.83283 9.00549 8.8H7.9C7.40294 8.8 7 8.39706 7 7.9C7 7.40294 7.40294 7 7.9 7H12.1C12.5971 7 13 7.40294 13 7.9C13 8.39706 12.5971 8.8 12.1 8.8H10.7945Z" fill="white" fill-opacity="0.5"/>
</svg>
