<svg width="22" height="21" viewBox="0 0 22 21" fill="none" xmlns="http://www.w3.org/2000/svg">
<path fill-rule="evenodd" clip-rule="evenodd" d="M9.634 7.00534L11 3.58437L12.3659 7.00534C12.7453 7.95551 13.6291 8.60962 14.6487 8.69477L18.3296 9.00215L15.4447 11.5763C15.044 11.9339 14.7667 12.395 14.6333 12.8961H16.5231C16.5402 12.8784 16.558 12.8613 16.5765 12.8447L20.6766 9.18626C21.3319 8.60157 20.9692 7.51667 20.094 7.44359L14.7902 7.00066C14.4126 6.96913 14.0852 6.72687 13.9447 6.37495L11.9287 1.32584C11.5937 0.486928 10.4062 0.486929 10.0712 1.32584L8.0552 6.37495C7.91469 6.72687 7.58733 6.96913 7.20972 7.00066L1.90586 7.44359C1.03071 7.51667 0.668032 8.60157 1.3233 9.18626L5.42337 12.8447C5.44188 12.8613 5.45969 12.8784 5.47677 12.8961H7.36665C7.23318 12.395 6.95594 11.9339 6.5552 11.5763L3.67035 9.00215L7.35119 8.69477C8.37075 8.60962 9.25461 7.95551 9.634 7.00534ZM7.34309 14.3961H5.59909L4.49031 19.238C4.29076 20.1094 5.24763 20.7848 6.00188 20.3049L10.4631 17.4665C10.7907 17.2581 11.2092 17.2581 11.5368 17.4665L15.998 20.3049C16.7523 20.7848 17.7091 20.1094 17.5096 19.238L16.4008 14.3961H14.6568L15.4718 17.9552L12.4493 16.0322C11.565 15.4695 10.4349 15.4695 9.55058 16.0322L6.52806 17.9552L7.34309 14.3961Z" fill="white" fill-opacity="0.5"/>
</svg>
